<svg width="56" height="56" fill="none" xmlns="http://www.w3.org/2000/svg"><path d="M28.208 28l-.232 22.49M48.1 38.354V17.646a1.75 1.75 0 00-.888-1.523L28.837 5.737a1.75 1.75 0 00-1.723 0L8.74 16.123a1.75 1.75 0 00-.889 1.523v20.708a1.75 1.75 0 00.89 1.523l18.374 10.386a1.75 1.75 0 001.723 0l18.375-10.386a1.75 1.75 0 00.888-1.523v0z" stroke="#111" stroke-width="2" stroke-linecap="round" stroke-linejoin="round"/><path d="M47.86 16.762L28.209 28 8.092 16.76" stroke="#111" stroke-width="2" stroke-linecap="round" stroke-linejoin="round"/><path d="M38.724 32.487v-10.5l-20.296-11.34" stroke="#FFBF33" stroke-width="2" stroke-linecap="round" stroke-linejoin="round"/></svg>