<svg width="14" height="14" fill="none" xmlns="http://www.w3.org/2000/svg"><path fill-rule="evenodd" clip-rule="evenodd" d="M7 .6C5.263.6 5.045.608 4.363.64 3.68.67 3.215.778 2.808.936c-.42.164-.778.382-1.133.738a3.142 3.142 0 00-.74 1.134C.778 3.215.67 3.68.64 4.36.608 5.044.6 5.262.6 7.001c0 1.737.008 1.955.039 2.637.031.682.139 1.147.297 1.554.164.42.382.778.738 1.134.356.356.713.575 1.133.738.408.159.873.266 1.554.298.683.03.9.038 2.639.038 1.738 0 1.956-.007 2.638-.038.681-.032 1.147-.14 1.554-.298a3.13 3.13 0 001.133-.738c.356-.356.575-.713.739-1.134.157-.407.265-.872.297-1.553.031-.683.039-.9.039-2.639 0-1.738-.008-1.956-.039-2.639-.032-.681-.14-1.146-.297-1.553a3.141 3.141 0 00-.739-1.134 3.128 3.128 0 00-1.133-.738C10.784.778 10.319.67 9.637.64 8.955.608 8.737.6 7 .6zm-.574 1.153h.575c1.708 0 1.91.007 2.586.037.624.029.962.133 1.188.22.299.117.512.255.736.48.224.223.362.437.478.735.088.226.192.564.22 1.188.032.675.038.878.038 2.586 0 1.708-.006 1.91-.037 2.585-.029.624-.133.963-.22 1.188a1.98 1.98 0 01-.48.735 1.98 1.98 0 01-.735.479c-.225.088-.564.192-1.188.22-.675.031-.878.038-2.586.038-1.71 0-1.912-.007-2.587-.037-.624-.03-.962-.134-1.188-.221a1.982 1.982 0 01-.736-.479 1.984 1.984 0 01-.479-.736c-.088-.225-.192-.564-.22-1.187-.031-.675-.037-.878-.037-2.587s.006-1.91.037-2.585c.028-.624.132-.963.22-1.189.116-.298.255-.512.479-.736.224-.224.437-.362.736-.479.226-.088.564-.192 1.188-.22.59-.027.82-.035 2.012-.036v.001zm3.99 1.063a.768.768 0 100 1.536.768.768 0 000-1.536zm-3.415.897a3.287 3.287 0 100 6.574 3.287 3.287 0 000-6.574zm0 1.154a2.133 2.133 0 110 4.267 2.133 2.133 0 010-4.267z" fill="#111"/></svg>