<svg width="56" height="56" viewBox="0 0 56 56" fill="none" xmlns="http://www.w3.org/2000/svg">
<path d="M28.2077 28L27.9755 50.4898" stroke="#111111" stroke-width="2" stroke-linecap="round" stroke-linejoin="round"/>
<path d="M48.1005 38.354V17.6461C48.1005 17.3362 48.0182 17.0319 47.862 16.7642C47.7058 16.4965 47.4814 16.2751 47.2116 16.1226L28.8366 5.73677C28.5739 5.58828 28.2772 5.51025 27.9755 5.51025C27.6737 5.51025 27.3771 5.58828 27.1144 5.73677L8.73936 16.1226C8.46957 16.2751 8.24512 16.4965 8.08894 16.7642C7.93276 17.0319 7.85046 17.3362 7.85046 17.6461V38.354C7.85046 38.6639 7.93276 38.9682 8.08894 39.2359C8.24511 39.5036 8.46957 39.725 8.73936 39.8775L27.1144 50.2634C27.3771 50.4118 27.6737 50.4899 27.9755 50.4899C28.2772 50.4899 28.5739 50.4118 28.8366 50.2634L47.2116 39.8775C47.4814 39.725 47.7058 39.5036 47.862 39.2359C48.0182 38.9682 48.1005 38.6639 48.1005 38.354V38.354Z" stroke="#111111" stroke-width="2" stroke-linecap="round" stroke-linejoin="round"/>
<path d="M47.8607 16.7622L28.2076 28L8.09155 16.7598" stroke="#111111" stroke-width="2" stroke-linecap="round" stroke-linejoin="round"/>
<path d="M38.7236 32.4868V21.9868L18.4282 10.6464" stroke="#FFBF33" stroke-width="2" stroke-linecap="round" stroke-linejoin="round"/>
</svg>
