<svg width="56" height="56" viewBox="0 0 56 56" fill="none" xmlns="http://www.w3.org/2000/svg">
<path d="M19.2501 35C25.5323 35 30.6251 29.9072 30.6251 23.625C30.6251 17.3428 25.5323 12.25 19.2501 12.25C12.9678 12.25 7.87506 17.3428 7.87506 23.625C7.87506 29.9072 12.9678 35 19.2501 35Z" stroke="#111111" stroke-width="2" stroke-miterlimit="10"/>
<path d="M33.9965 12.6738C35.5611 12.2329 37.2019 12.1325 38.8085 12.3793C40.4152 12.626 41.9502 13.2142 43.3104 14.1041C44.6706 14.9941 45.8243 16.1652 46.6937 17.5386C47.5632 18.912 48.1282 20.4557 48.3508 22.0659C48.5734 23.676 48.4484 25.3151 47.9841 26.8729C47.5199 28.4306 46.7272 29.8708 45.6595 31.0964C44.5918 32.322 43.2738 33.3046 41.7944 33.978C40.315 34.6513 38.7084 34.9999 37.083 35" stroke="#FFBF33" stroke-width="2" stroke-linecap="round" stroke-linejoin="round"/>
<path d="M3.49915 43.1805C5.27569 40.6535 7.63416 38.5911 10.3754 37.1673C13.1167 35.7435 16.1603 35.0001 19.2493 35C22.3383 34.9999 25.382 35.743 28.1234 37.1666C30.8648 38.5902 33.2234 40.6525 35.0001 43.1793" stroke="#111111" stroke-width="2" stroke-linecap="round" stroke-linejoin="round"/>
<path d="M37.0829 35C40.1722 34.9978 43.2165 35.74 45.9582 37.1637C48.6998 38.5875 51.0579 40.6509 52.833 43.1793" stroke="#FFBF33" stroke-width="2" stroke-linecap="round" stroke-linejoin="round"/>
</svg>
